<?xml version="1.0" encoding="iso-8859-1"?>
<!-- Generator: Adobe Illustrator 19.0.0, SVG Export Plug-In . SVG Version: 6.00 Build 0)  -->
<svg version="1.1" id="Layer_1" xmlns="http://www.w3.org/2000/svg" xmlns:xlink="http://www.w3.org/1999/xlink" x="0px" y="0px"
	 viewBox="0 0 511.999 511.999" style="enable-background:new 0 0 511.999 511.999;" xml:space="preserve">
<polygon style="fill:#CEE8FA;" points="132.719,199.249 132.719,353.628 438.66,353.628 469.623,199.249 "/>
<g>
	<path style="fill:#2D527C;" d="M462.528,395.155H313.38c-8.491,0-15.374,6.883-15.374,15.374s6.883,15.374,15.374,15.374h43.048
		c15.259,0,27.674,12.415,27.674,27.674c0,15.259-12.415,27.674-27.674,27.674s-27.674-12.415-27.674-27.674
		c0-8.491-6.883-15.374-15.374-15.374s-15.374,6.883-15.374,15.374c0,32.214,26.208,58.422,58.422,58.422
		s58.422-26.208,58.422-58.422c0-10.007-2.532-19.431-6.985-27.674h54.663c8.491,0,15.374-6.883,15.374-15.374
		S471.019,395.155,462.528,395.155z"/>
	<path style="fill:#2D527C;" d="M496.703,113.784c-2.92-3.564-7.284-5.63-11.892-5.63H148.093v-62.01
		c0-6.834-4.511-12.847-11.071-14.759L31.495,0.618c-8.156-2.374-16.687,2.305-19.063,10.456
		c-2.377,8.151,2.305,16.686,10.456,19.063l94.458,27.54v65.852v271.627h-15.087c-8.491,0-15.374,6.883-15.374,15.374
		s6.883,15.374,15.374,15.374h87.355c0.263,0,1.291,0,1.553,0c15.259,0,27.674,12.415,27.674,27.674
		c0,15.259-12.415,27.674-27.674,27.674s-27.674-12.415-27.674-27.674c0-8.491-6.883-15.374-15.374-15.374
		s-15.374,6.883-15.374,15.374c0,32.214,26.208,58.422,58.422,58.422s58.422-26.208,58.422-58.422s-26.208-58.422-58.422-58.422
		c-0.263,0-1.291,0-1.553,0h-41.521v-26.153H438.66c2.747,0,5.35-0.727,7.609-2.014c3.764-2.145,6.565-5.848,7.466-10.336
		l46.152-230.101C500.791,122.034,499.623,117.348,496.703,113.784z M466.047,138.902l-9.02,44.973H148.093v-44.973H466.047z
		 M148.093,338.254V293.28h208.335c8.491,0,15.374-6.883,15.374-15.374s-6.883-15.374-15.374-15.374H148.093v-47.908h302.766
		l-24.796,123.63H148.093z"/>
</g>
<g>
</g>
<g>
</g>
<g>
</g>
<g>
</g>
<g>
</g>
<g>
</g>
<g>
</g>
<g>
</g>
<g>
</g>
<g>
</g>
<g>
</g>
<g>
</g>
<g>
</g>
<g>
</g>
<g>
</g>
</svg>
