<?xml version="1.0" encoding="iso-8859-1"?>
<!-- Generator: Adobe Illustrator 19.0.0, SVG Export Plug-In . SVG Version: 6.00 Build 0)  -->
<svg version="1.1" id="Layer_1" xmlns="http://www.w3.org/2000/svg" xmlns:xlink="http://www.w3.org/1999/xlink" x="0px" y="0px"
	 viewBox="0 0 460 460" style="enable-background:new 0 0 460 460;" xml:space="preserve">
<g id="XMLID_91_">
	<path id="XMLID_92_" style="fill:#466289;" d="M71.657,430c0,16.568,13.431,30,30,30l10-30l-10-30
		C85.089,400,71.657,413.432,71.657,430z"/>
	<path id="XMLID_93_" style="fill:#354A67;" d="M101.657,400v60c16.568,0,30-13.432,30-30S118.226,400,101.657,400z"/>
	<path id="XMLID_102_" style="fill:#354A67;" d="M266.657,430c0,16.568,13.431,30,30,30l10-30l-10-30
		C280.089,400,266.657,413.432,266.657,430z"/>
	<path id="XMLID_103_" style="fill:#233145;" d="M296.657,400v60c16.568,0,30-13.432,30-30S313.226,400,296.657,400z"/>
	<polygon id="XMLID_104_" style="fill:#BFDCFF;" points="37.277,90 52.553,214.407 185.798,240.768 195.798,165.384 185.798,90 	"/>
	<polygon id="XMLID_105_" style="fill:#8BC0FF;" points="321.712,257.531 344.411,90 185.798,90 185.798,240.843 	"/>
	<polygon id="XMLID_106_" style="fill:#466289;" points="313.129,246.402 52.553,214.407 56.321,245.095 318.937,277.341 
		322.965,247.61 	"/>
	<polygon id="XMLID_107_" style="fill:#354A67;" points="326.657,370 71.657,370 71.657,340 300.448,340 346.513,0 422.723,0 
		422.723,30 372.723,30 	"/>
</g>
<g>
</g>
<g>
</g>
<g>
</g>
<g>
</g>
<g>
</g>
<g>
</g>
<g>
</g>
<g>
</g>
<g>
</g>
<g>
</g>
<g>
</g>
<g>
</g>
<g>
</g>
<g>
</g>
<g>
</g>
</svg>
